<svg id="visual" viewBox="0 0 900 600" width="900" height="600" xmlns="http://www.w3.org/2000/svg" xmlns:xlink="http://www.w3.org/1999/xlink" version="1.1"><path d="M0 73L16.7 75C33.3 77 66.7 81 100 93C133.3 105 166.7 125 200 126C233.3 127 266.7 109 300 86C333.3 63 366.7 35 400 46C433.3 57 466.7 107 500 127C533.3 147 566.7 137 600 119C633.3 101 666.7 75 700 71C733.3 67 766.7 85 800 96C833.3 107 866.7 111 883.3 113L900 115L900 0L883.3 0C866.7 0 833.3 0 800 0C766.7 0 733.3 0 700 0C666.7 0 633.3 0 600 0C566.7 0 533.3 0 500 0C466.7 0 433.3 0 400 0C366.7 0 333.3 0 300 0C266.7 0 233.3 0 200 0C166.7 0 133.3 0 100 0C66.7 0 33.3 0 16.7 0L0 0Z" fill="#022a53"></path><path d="M0 121L16.7 134C33.3 147 66.7 173 100 204C133.3 235 166.7 271 200 277C233.3 283 266.7 259 300 259C333.3 259 366.7 283 400 290C433.3 297 466.7 287 500 269C533.3 251 566.7 225 600 218C633.3 211 666.7 223 700 237C733.3 251 766.7 267 800 268C833.3 269 866.7 255 883.3 248L900 241L900 113L883.3 111C866.7 109 833.3 105 800 94C766.7 83 733.3 65 700 69C666.7 73 633.3 99 600 117C566.7 135 533.3 145 500 125C466.7 105 433.3 55 400 44C366.7 33 333.3 61 300 84C266.7 107 233.3 125 200 124C166.7 123 133.3 103 100 91C66.7 79 33.3 75 16.7 73L0 71Z" fill="#052446"></path><path d="M0 289L16.7 300C33.3 311 66.7 333 100 341C133.3 349 166.7 343 200 325C233.3 307 266.7 277 300 277C333.3 277 366.7 307 400 324C433.3 341 466.7 345 500 347C533.3 349 566.7 349 600 337C633.3 325 666.7 301 700 310C733.3 319 766.7 361 800 358C833.3 355 866.7 307 883.3 283L900 259L900 239L883.3 246C866.7 253 833.3 267 800 266C766.7 265 733.3 249 700 235C666.7 221 633.3 209 600 216C566.7 223 533.3 249 500 267C466.7 285 433.3 295 400 288C366.7 281 333.3 257 300 257C266.7 257 233.3 281 200 275C166.7 269 133.3 233 100 202C66.7 171 33.3 145 16.7 132L0 119Z" fill="#071e39"></path><path d="M0 289L16.7 307C33.3 325 66.7 361 100 372C133.3 383 166.7 369 200 348C233.3 327 266.7 299 300 301C333.3 303 366.7 335 400 356C433.3 377 466.7 387 500 388C533.3 389 566.7 381 600 366C633.3 351 666.7 329 700 334C733.3 339 766.7 371 800 365C833.3 359 866.7 315 883.3 293L900 271L900 257L883.3 281C866.7 305 833.3 353 800 356C766.7 359 733.3 317 700 308C666.7 299 633.3 323 600 335C566.7 347 533.3 347 500 345C466.7 343 433.3 339 400 322C366.7 305 333.3 275 300 275C266.7 275 233.3 305 200 323C166.7 341 133.3 347 100 339C66.7 331 33.3 309 16.7 298L0 287Z" fill="#09192d"></path><path d="M0 367L16.7 380C33.3 393 66.7 419 100 431C133.3 443 166.7 441 200 416C233.3 391 266.7 343 300 340C333.3 337 366.7 379 400 397C433.3 415 466.7 409 500 414C533.3 419 566.7 435 600 435C633.3 435 666.7 419 700 415C733.3 411 766.7 419 800 401C833.3 383 866.7 339 883.3 317L900 295L900 269L883.3 291C866.7 313 833.3 357 800 363C766.7 369 733.3 337 700 332C666.7 327 633.3 349 600 364C566.7 379 533.3 387 500 386C466.7 385 433.3 375 400 354C366.7 333 333.3 301 300 299C266.7 297 233.3 325 200 346C166.7 367 133.3 381 100 370C66.7 359 33.3 323 16.7 305L0 287Z" fill="#081221"></path><path d="M0 385L16.7 403C33.3 421 66.7 457 100 471C133.3 485 166.7 477 200 450C233.3 423 266.7 377 300 380C333.3 383 366.7 435 400 448C433.3 461 466.7 435 500 429C533.3 423 566.7 437 600 438C633.3 439 666.7 427 700 428C733.3 429 766.7 443 800 430C833.3 417 866.7 377 883.3 357L900 337L900 293L883.3 315C866.7 337 833.3 381 800 399C766.7 417 733.3 409 700 413C666.7 417 633.3 433 600 433C566.7 433 533.3 417 500 412C466.7 407 433.3 413 400 395C366.7 377 333.3 335 300 338C266.7 341 233.3 389 200 414C166.7 439 133.3 441 100 429C66.7 417 33.3 391 16.7 378L0 365Z" fill="#030a16"></path><path d="M0 421L16.7 434C33.3 447 66.7 473 100 485C133.3 497 166.7 495 200 474C233.3 453 266.7 413 300 416C333.3 419 366.7 465 400 476C433.3 487 466.7 463 500 456C533.3 449 566.7 459 600 455C633.3 451 666.7 433 700 434C733.3 435 766.7 455 800 448C833.3 441 866.7 407 883.3 390L900 373L900 335L883.3 355C866.7 375 833.3 415 800 428C766.7 441 733.3 427 700 426C666.7 425 633.3 437 600 436C566.7 435 533.3 421 500 427C466.7 433 433.3 459 400 446C366.7 433 333.3 381 300 378C266.7 375 233.3 421 200 448C166.7 475 133.3 483 100 469C66.7 455 33.3 419 16.7 401L0 383Z" fill="#030915"></path><path d="M0 481L16.7 494C33.3 507 66.7 533 100 541C133.3 549 166.7 539 200 516C233.3 493 266.7 457 300 459C333.3 461 366.7 501 400 510C433.3 519 466.7 497 500 488C533.3 479 566.7 483 600 484C633.3 485 666.7 483 700 485C733.3 487 766.7 493 800 480C833.3 467 866.7 435 883.3 419L900 403L900 371L883.3 388C866.7 405 833.3 439 800 446C766.7 453 733.3 433 700 432C666.7 431 633.3 449 600 453C566.7 457 533.3 447 500 454C466.7 461 433.3 485 400 474C366.7 463 333.3 417 300 414C266.7 411 233.3 451 200 472C166.7 493 133.3 495 100 483C66.7 471 33.3 445 16.7 432L0 419Z" fill="#030914"></path><path d="M0 487L16.7 506C33.3 525 66.7 563 100 572C133.3 581 166.7 561 200 542C233.3 523 266.7 505 300 505C333.3 505 366.7 523 400 529C433.3 535 466.7 529 500 532C533.3 535 566.7 547 600 549C633.3 551 666.7 543 700 535C733.3 527 766.7 519 800 509C833.3 499 866.7 487 883.3 481L900 475L900 401L883.3 417C866.7 433 833.3 465 800 478C766.7 491 733.3 485 700 483C666.7 481 633.3 483 600 482C566.7 481 533.3 477 500 486C466.7 495 433.3 517 400 508C366.7 499 333.3 459 300 457C266.7 455 233.3 491 200 514C166.7 537 133.3 547 100 539C66.7 531 33.3 505 16.7 492L0 479Z" fill="#030814"></path><path d="M0 547L16.7 556C33.3 565 66.7 583 100 591C133.3 599 166.7 597 200 582C233.3 567 266.7 539 300 539C333.3 539 366.7 567 400 575C433.3 583 466.7 571 500 570C533.3 569 566.7 579 600 575C633.3 571 666.7 553 700 542C733.3 531 766.7 527 800 520C833.3 513 866.7 503 883.3 498L900 493L900 473L883.3 479C866.7 485 833.3 497 800 507C766.7 517 733.3 525 700 533C666.7 541 633.3 549 600 547C566.7 545 533.3 533 500 530C466.7 527 433.3 533 400 527C366.7 521 333.3 503 300 503C266.7 503 233.3 521 200 540C166.7 559 133.3 579 100 570C66.7 561 33.3 523 16.7 504L0 485Z" fill="#030813"></path><path d="M0 601L16.7 601C33.3 601 66.7 601 100 601C133.3 601 166.7 601 200 601C233.3 601 266.7 601 300 601C333.3 601 366.7 601 400 601C433.3 601 466.7 601 500 601C533.3 601 566.7 601 600 601C633.3 601 666.7 601 700 601C733.3 601 766.7 601 800 601C833.3 601 866.7 601 883.3 601L900 601L900 491L883.3 496C866.7 501 833.3 511 800 518C766.7 525 733.3 529 700 540C666.7 551 633.3 569 600 573C566.7 577 533.3 567 500 568C466.7 569 433.3 581 400 573C366.7 565 333.3 537 300 537C266.7 537 233.3 565 200 580C166.7 595 133.3 597 100 589C66.7 581 33.3 563 16.7 554L0 545Z" fill="#030712"></path></svg>