<svg id="visual" viewBox="0 0 600 900" width="600" height="900" xmlns="http://www.w3.org/2000/svg" xmlns:xlink="http://www.w3.org/1999/xlink" version="1.1"><path d="M491 900L495 885C499 870 507 840 506 810C505 780 495 750 490 720C485 690 485 660 496 630C507 600 529 570 535 540C541 510 531 480 529 450C527 420 533 390 527 360C521 330 503 300 509 270C515 240 545 210 545 180C545 150 515 120 508 90C501 60 517 30 525 15L533 0L600 0L600 15C600 30 600 60 600 90C600 120 600 150 600 180C600 210 600 240 600 270C600 300 600 330 600 360C600 390 600 420 600 450C600 480 600 510 600 540C600 570 600 600 600 630C600 660 600 690 600 720C600 750 600 780 600 810C600 840 600 870 600 885L600 900Z" fill="#222b33"></path><path d="M395 900L374 885C353 870 311 840 307 810C303 780 337 750 351 720C365 690 359 660 344 630C329 600 305 570 299 540C293 510 305 480 312 450C319 420 321 390 325 360C329 330 335 300 345 270C355 240 369 210 365 180C361 150 339 120 346 90C353 60 389 30 407 15L425 0L534 0L526 15C518 30 502 60 509 90C516 120 546 150 546 180C546 210 516 240 510 270C504 300 522 330 528 360C534 390 528 420 530 450C532 480 542 510 536 540C530 570 508 600 497 630C486 660 486 690 491 720C496 750 506 780 507 810C508 840 500 870 496 885L492 900Z" fill="#181d22"></path><path d="M365 900L345 885C325 870 285 840 275 810C265 780 285 750 287 720C289 690 273 660 263 630C253 600 249 570 254 540C259 510 273 480 276 450C279 420 271 390 267 360C263 330 263 300 280 270C297 240 331 210 331 180C331 150 297 120 286 90C275 60 287 30 293 15L299 0L426 0L408 15C390 30 354 60 347 90C340 120 362 150 366 180C370 210 356 240 346 270C336 300 330 330 326 360C322 390 320 420 313 450C306 480 294 510 300 540C306 570 330 600 345 630C360 660 366 690 352 720C338 750 304 780 308 810C312 840 354 870 375 885L396 900Z" fill="#0c0f12"></path><path d="M347 900L322 885C297 870 247 840 231 810C215 780 233 750 223 720C213 690 175 660 150 630C125 600 113 570 125 540C137 510 173 480 177 450C181 420 153 390 135 360C117 330 109 300 122 270C135 240 169 210 175 180C181 150 159 120 146 90C133 60 129 30 127 15L125 0L300 0L294 15C288 30 276 60 287 90C298 120 332 150 332 180C332 210 298 240 281 270C264 300 264 330 268 360C272 390 280 420 277 450C274 480 260 510 255 540C250 570 254 600 264 630C274 660 290 690 288 720C286 750 266 780 276 810C286 840 326 870 346 885L366 900Z" fill="#030405"></path><path d="M89 900L90 885C91 870 93 840 91 810C89 780 83 750 82 720C81 690 85 660 77 630C69 600 49 570 50 540C51 510 73 480 79 450C85 420 75 390 65 360C55 330 45 300 49 270C53 240 71 210 73 180C75 150 61 120 47 90C33 60 19 30 12 15L5 0L126 0L128 15C130 30 134 60 147 90C160 120 182 150 176 180C170 210 136 240 123 270C110 300 118 330 136 360C154 390 182 420 178 450C174 480 138 510 126 540C114 570 126 600 151 630C176 660 214 690 224 720C234 750 216 780 232 810C248 840 298 870 323 885L348 900Z" fill="#020304"></path><path d="M0 900L0 885C0 870 0 840 0 810C0 780 0 750 0 720C0 690 0 660 0 630C0 600 0 570 0 540C0 510 0 480 0 450C0 420 0 390 0 360C0 330 0 300 0 270C0 240 0 210 0 180C0 150 0 120 0 90C0 60 0 30 0 15L0 0L6 0L13 15C20 30 34 60 48 90C62 120 76 150 74 180C72 210 54 240 50 270C46 300 56 330 66 360C76 390 86 420 80 450C74 480 52 510 51 540C50 570 70 600 78 630C86 660 82 690 83 720C84 750 90 780 92 810C94 840 92 870 91 885L90 900Z" fill="#020304"></path></svg>