<svg id="visual" viewBox="0 0 450 900" width="450" height="900" xmlns="http://www.w3.org/2000/svg" xmlns:xlink="http://www.w3.org/1999/xlink" version="1.1"><path d="M368 900L371 885C374 870 380 840 379.3 810C378.7 780 371.3 750 367.7 720C364 690 364 660 372.2 630C380.3 600 396.7 570 401.2 540C405.7 510 398.3 480 396.8 450C395.3 420 399.7 390 395.2 360C390.7 330 377.3 300 381.8 270C386.3 240 408.7 210 408.7 180C408.7 150 386.3 120 381.2 90C376 60 388 30 394 15L400 0L450 0L450 15C450 30 450 60 450 90C450 120 450 150 450 180C450 210 450 240 450 270C450 300 450 330 450 360C450 390 450 420 450 450C450 480 450 510 450 540C450 570 450 600 450 630C450 660 450 690 450 720C450 750 450 780 450 810C450 840 450 870 450 885L450 900Z" fill="#222b33"></path><path d="M296 900L280.2 885C264.3 870 232.7 840 229.7 810C226.7 780 252.3 750 263 720C273.7 690 269.3 660 258.2 630C247 600 229 570 224.5 540C220 510 229 480 234.2 450C239.3 420 240.7 390 243.7 360C246.7 330 251.3 300 258.8 270C266.3 240 276.7 210 273.7 180C270.7 150 254.3 120 259.7 90C265 60 292 30 305.5 15L319 0L401 0L395 15C389 30 377 60 382.2 90C387.3 120 409.7 150 409.7 180C409.7 210 387.3 240 382.8 270C378.3 300 391.7 330 396.2 360C400.7 390 396.3 420 397.8 450C399.3 480 406.7 510 402.2 540C397.7 570 381.3 600 373.2 630C365 660 365 690 368.7 720C372.3 750 379.7 780 380.3 810C381 840 375 870 372 885L369 900Z" fill="#181d22"></path><path d="M274 900L259 885C244 870 214 840 206.5 810C199 780 214 750 215.5 720C217 690 205 660 197.5 630C190 600 187 570 190.7 540C194.3 510 204.7 480 206.8 450C209 420 203 390 200 360C197 330 197 300 209.8 270C222.7 240 248.3 210 248.3 180C248.3 150 222.7 120 214.3 90C206 60 215 30 219.5 15L224 0L320 0L306.5 15C293 30 266 60 260.7 90C255.3 120 271.7 150 274.7 180C277.7 210 267.3 240 259.8 270C252.3 300 247.7 330 244.7 360C241.7 390 240.3 420 235.2 450C230 480 221 510 225.5 540C230 570 248 600 259.2 630C270.3 660 274.7 690 264 720C253.3 750 227.7 780 230.7 810C233.7 840 265.3 870 281.2 885L297 900Z" fill="#0c0f12"></path><path d="M260 900L241.2 885C222.3 870 184.7 840 172.7 810C160.7 780 174.3 750 166.8 720C159.3 690 130.7 660 112 630C93.3 600 84.7 570 93.8 540C103 510 130 480 132.8 450C135.7 420 114.3 390 100.8 360C87.3 330 81.7 300 91.5 270C101.3 240 126.7 210 131 180C135.3 150 118.7 120 108.8 90C99 60 96 30 94.5 15L93 0L225 0L220.5 15C216 30 207 60 215.3 90C223.7 120 249.3 150 249.3 180C249.3 210 223.7 240 210.8 270C198 300 198 330 201 360C204 390 210 420 207.8 450C205.7 480 195.3 510 191.7 540C188 570 191 600 198.5 630C206 660 218 690 216.5 720C215 750 200 780 207.5 810C215 840 245 870 260 885L275 900Z" fill="#030405"></path><path d="M67 900L67.7 885C68.3 870 69.7 840 68.2 810C66.7 780 62.3 750 61.7 720C61 690 64 660 58 630C52 600 37 570 37.7 540C38.3 510 54.7 480 59 450C63.3 420 55.7 390 48.2 360C40.7 330 33.3 300 36.5 270C39.7 240 53.3 210 54.8 180C56.3 150 45.7 120 35.2 90C24.7 60 14.3 30 9.2 15L4 0L94 0L95.5 15C97 30 100 60 109.8 90C119.7 120 136.3 150 132 180C127.7 210 102.3 240 92.5 270C82.7 300 88.3 330 101.8 360C115.3 390 136.7 420 133.8 450C131 480 104 510 94.8 540C85.7 570 94.3 600 113 630C131.7 660 160.3 690 167.8 720C175.3 750 161.7 780 173.7 810C185.7 840 223.3 870 242.2 885L261 900Z" fill="#020304"></path><path d="M0 900L0 885C0 870 0 840 0 810C0 780 0 750 0 720C0 690 0 660 0 630C0 600 0 570 0 540C0 510 0 480 0 450C0 420 0 390 0 360C0 330 0 300 0 270C0 240 0 210 0 180C0 150 0 120 0 90C0 60 0 30 0 15L0 0L5 0L10.2 15C15.3 30 25.7 60 36.2 90C46.7 120 57.3 150 55.8 180C54.3 210 40.7 240 37.5 270C34.3 300 41.7 330 49.2 360C56.7 390 64.3 420 60 450C55.7 480 39.3 510 38.7 540C38 570 53 600 59 630C65 660 62 690 62.7 720C63.3 750 67.7 780 69.2 810C70.7 840 69.3 870 68.7 885L68 900Z" fill="#020304"></path></svg>